{
  "accessors": [
    {
      "bufferView": 2,
      "componentType": 5126,
      "count": 42057,
      "max": [
        0.057707130908966064,
        0.06336379796266556,
        0.022857051342725754
      ],
      "min": [
        -0.05971592664718628,
        -0.06664369255304337,
        -0.031943853944540024
      ],
      "type": "VEC3"
    },
    {
      "bufferView": 2,
      "byteOffset": 504684,
      "componentType": 5126,
      "count": 42057,
      "max": [
        0.999995231628418,
        0.999922513961792,
        1.0
      ],
      "min": [
        -0.9999340772628784,
        -0.9999583959579468,
        -1.0
      ],
      "type": "VEC3"
    },
    {
      "bufferView": 1,
      "componentType": 5126,
      "count": 42057,
      "max": [
        1.0,
        1.0000001192092896
      ],
      "min": [
        0.0,
        0.0
      ],
      "type": "VEC2"
    },
    {
      "bufferView": 0,
      "componentType": 5125,
      "count": 245820,
      "type": "SCALAR"
    },
    {
      "bufferView": 2,
      "byteOffset": 1009368,
      "componentType": 5126,
      "count": 42650,
      "max": [
        0.04574328660964966,
        0.08475000411272049,
        0.00269484450109303
      ],
      "min": [
        -0.04702889919281006,
        -0.072171151638031,
        -0.023586124181747437
      ],
      "type": "VEC3"
    },
    {
      "bufferView": 2,
      "byteOffset": 1521168,
      "componentType": 5126,
      "count": 42650,
      "max": [
        0.999976634979248,
        0.9999957084655762,
        1.0
      ],
      "min": [
        -0.9998092651367188,
        -0.9999958276748657,
        -1.0
      ],
      "type": "VEC3"
    },
    {
      "bufferView": 1,
      "byteOffset": 336456,
      "componentType": 5126,
      "count": 42650,
      "max": [
        1.0,
        1.0220788717269897
      ],
      "min": [
        0.0,
        0.0
      ],
      "type": "VEC2"
    },
    {
      "bufferView": 0,
      "byteOffset": 983280,
      "componentType": 5125,
      "count": 249840,
      "type": "SCALAR"
    },
    {
      "bufferView": 2,
      "byteOffset": 2032968,
      "componentType": 5126,
      "count": 2373,
      "max": [
        0.03450828790664673,
        0.017110368236899376,
        -0.02230183407664299
      ],
      "min": [
        0.027266619727015495,
        0.002401692559942603,
        -0.02741416171193123
      ],
      "type": "VEC3"
    },
    {
      "bufferView": 2,
      "byteOffset": 2061444,
      "componentType": 5126,
      "count": 2373,
      "max": [
        0.9999974966049194,
        0.999985933303833,
        1.0
      ],
      "min": [
        -0.9999995231628418,
        -0.999985933303833,
        -0.9734541177749634
      ],
      "type": "VEC3"
    },
    {
      "bufferView": 1,
      "byteOffset": 677656,
      "componentType": 5126,
      "count": 2373,
      "max": [
        0.0,
        0.0
      ],
      "min": [
        0.0,
        0.0
      ],
      "type": "VEC2"
    },
    {
      "bufferView": 0,
      "byteOffset": 1982640,
      "componentType": 5125,
      "count": 14016,
      "type": "SCALAR"
    },
    {
      "bufferView": 2,
      "byteOffset": 2089920,
      "componentType": 5126,
      "count": 98,
      "max": [
        -0.024580063298344612,
        0.0175896268337965,
        -0.02463538572192192
      ],
      "min": [
        -0.03297746181488037,
        0.009846871718764305,
        -0.027665918692946434
      ],
      "type": "VEC3"
    },
    {
      "bufferView": 2,
      "byteOffset": 2091096,
      "componentType": 5126,
      "count": 98,
      "max": [
        0.9440225958824158,
        0.9487855434417725,
        1.0
      ],
      "min": [
        -0.9439852237701416,
        -0.9489891529083252,
        -1.0
      ],
      "type": "VEC3"
    },
    {
      "bufferView": 1,
      "byteOffset": 696640,
      "componentType": 5126,
      "count": 98,
      "max": [
        0.0,
        0.0
      ],
      "min": [
        0.0,
        0.0
      ],
      "type": "VEC2"
    },
    {
      "bufferView": 0,
      "byteOffset": 2038704,
      "componentType": 5125,
      "count": 576,
      "type": "SCALAR"
    },
    {
      "bufferView": 2,
      "byteOffset": 2092272,
      "componentType": 5126,
      "count": 34838,
      "max": [
        0.0482712984085083,
        0.03862488269805908,
        0.018659062683582306
      ],
      "min": [
        -0.04798102378845215,
        -0.05762746185064316,
        0.004891407210379839
      ],
      "type": "VEC3"
    },
    {
      "bufferView": 2,
      "byteOffset": 2510328,
      "componentType": 5126,
      "count": 34838,
      "max": [
        1.0,
        0.9999995231628418,
        1.0
      ],
      "min": [
        -1.0,
        -0.9999980926513672,
        -1.0
      ],
      "type": "VEC3"
    },
    {
      "bufferView": 1,
      "byteOffset": 697424,
      "componentType": 5126,
      "count": 34838,
      "max": [
        1.0,
        1.0
      ],
      "min": [
        0.0,
        0.0
      ],
      "type": "VEC2"
    },
    {
      "bufferView": 0,
      "byteOffset": 2041008,
      "componentType": 5125,
      "count": 71664,
      "type": "SCALAR"
    },
    {
      "bufferView": 2,
      "byteOffset": 2928384,
      "componentType": 5126,
      "count": 192,
      "max": [
        0.049583256244659424,
        0.039937376976013184,
        0.020425498485565186
      ],
      "min": [
        -0.04929310083389282,
        -0.058939382433891296,
        0.0186556875705719
      ],
      "type": "VEC3"
    },
    {
      "bufferView": 2,
      "byteOffset": 2930688,
      "componentType": 5126,
      "count": 192,
      "max": [
        0.9963473081588745,
        0.9963475465774536,
        1.0
      ],
      "min": [
        -0.9963475465774536,
        -0.9963473677635193,
        -0.9999999403953552
      ],
      "type": "VEC3"
    },
    {
      "bufferView": 1,
      "byteOffset": 976128,
      "componentType": 5126,
      "count": 192,
      "max": [
        0.0,
        0.0
      ],
      "min": [
        0.0,
        0.0
      ],
      "type": "VEC2"
    },
    {
      "bufferView": 0,
      "byteOffset": 2327664,
      "componentType": 5125,
      "count": 372,
      "type": "SCALAR"
    }
  ],
  "asset": {
    "extras": {
      "author": "xTomele (https://sketchfab.com/xtomele)",
      "license": "CC-BY-4.0 (http://creativecommons.org/licenses/by/4.0/)",
      "source": "https://sketchfab.com/3d-models/peakeep-4-alarm-clock-d2929d60de2940bba5f7d92170f01bc1",
      "title": "Peakeep 4 Alarm Clock"
    },
    "generator": "Sketchfab-12.67.0",
    "version": "2.0"
  },
  "bufferViews": [
    {
      "buffer": 0,
      "byteLength": 2329152,
      "name": "floatBufferViews",
      "target": 34963
    },
    {
      "buffer": 0,
      "byteLength": 977664,
      "byteOffset": 2329152,
      "byteStride": 8,
      "name": "floatBufferViews",
      "target": 34962
    },
    {
      "buffer": 0,
      "byteLength": 2932992,
      "byteOffset": 3306816,
      "byteStride": 12,
      "name": "floatBufferViews",
      "target": 34962
    }
  ],
  "buffers": [
    {
      "byteLength": 6239808,
      "uri": "scene.bin"
    }
  ],
  "extensionsUsed": [
    "KHR_materials_transmission"
  ],
  "materials": [
    {
      "doubleSided": true,
      "name": "Metal_mate_black",
      "pbrMetallicRoughness": {
        "baseColorFactor": [
          0.0,
          0.0,
          0.0,
          1.0
        ],
        "metallicFactor": 0.5758520492591762,
        "roughnessFactor": 0.5010390816781288
      }
    },
    {
      "doubleSided": true,
      "name": "Metal_glossy_chrome",
      "pbrMetallicRoughness": {
        "baseColorFactor": [
          0.7259239671779464,
          0.7259239671779464,
          0.7259239671779464,
          1.0
        ],
        "roughnessFactor": 0.039692448261670045
      }
    },
    {
      "doubleSided": true,
      "name": "Material",
      "pbrMetallicRoughness": {
        "baseColorFactor": [
          0.0,
          0.0,
          0.0,
          1.0
        ],
        "metallicFactor": 0.0,
        "roughnessFactor": 0.164
      }
    },
    {
      "doubleSided": true,
      "name": "Material.005",
      "pbrMetallicRoughness": {
        "baseColorFactor": [
          0.452309,
          0.452309,
          0.452309,
          1.0
        ],
        "metallicFactor": 0.0,
        "roughnessFactor": 0.5
      }
    },
    {
      "doubleSided": true,
      "name": "Plastic_glossy_white",
      "pbrMetallicRoughness": {
        "metallicFactor": 0.0,
        "roughnessFactor": 0.0705394
      }
    },
    {
      "alphaMode": "BLEND",
      "doubleSided": true,
      "extensions": {
        "KHR_materials_transmission": {
          "transmissionFactor": 0.5238985741822202
        }
      },
      "name": "Material.001",
      "pbrMetallicRoughness": {
        "baseColorFactor": [
          0.0,
          0.0,
          0.0,
          0.47610142581777976
        ],
        "metallicFactor": 0.0,
        "roughnessFactor": 0.0
      }
    }
  ],
  "meshes": [
    {
      "name": "Object_0",
      "primitives": [
        {
          "attributes": {
            "NORMAL": 1,
            "POSITION": 0,
            "TEXCOORD_0": 2
          },
          "indices": 3,
          "material": 0,
          "mode": 4
        }
      ]
    },
    {
      "name": "Object_1",
      "primitives": [
        {
          "attributes": {
            "NORMAL": 5,
            "POSITION": 4,
            "TEXCOORD_0": 6
          },
          "indices": 7,
          "material": 1,
          "mode": 4
        }
      ]
    },
    {
      "name": "Object_2",
      "primitives": [
        {
          "attributes": {
            "NORMAL": 9,
            "POSITION": 8,
            "TEXCOORD_0": 10
          },
          "indices": 11,
          "material": 2,
          "mode": 4
        }
      ]
    },
    {
      "name": "Object_3",
      "primitives": [
        {
          "attributes": {
            "NORMAL": 13,
            "POSITION": 12,
            "TEXCOORD_0": 14
          },
          "indices": 15,
          "material": 3,
          "mode": 4
        }
      ]
    },
    {
      "name": "Object_4",
      "primitives": [
        {
          "attributes": {
            "NORMAL": 17,
            "POSITION": 16,
            "TEXCOORD_0": 18
          },
          "indices": 19,
          "material": 4,
          "mode": 4
        }
      ]
    },
    {
      "name": "Object_5",
      "primitives": [
        {
          "attributes": {
            "NORMAL": 21,
            "POSITION": 20,
            "TEXCOORD_0": 22
          },
          "indices": 23,
          "material": 5,
          "mode": 4
        }
      ]
    }
  ],
  "nodes": [
    {
      "children": [
        1
      ],
      "matrix": [
        1.0,
        0.0,
        0.0,
        0.0,
        0.0,
        2.220446049250313e-16,
        -1.0,
        0.0,
        0.0,
        1.0,
        2.220446049250313e-16,
        0.0,
        0.0,
        -7.703719777548943e-34,
        3.469446951953614e-18,
        1.0
      ],
      "name": "Sketchfab_model"
    },
    {
      "children": [
        2
      ],
      "name": "root"
    },
    {
      "children": [
        3
      ],
      "matrix": [
        1.0,
        0.0,
        0.0,
        0.0,
        0.0,
        2.220446049250313e-16,
        1.0,
        0.0,
        0.0,
        -1.0,
        2.220446049250313e-16,
        0.0,
        0.0,
        0.0,
        0.0,
        1.0
      ],
      "name": "GLTF_SceneRootNode"
    },
    {
      "children": [
        4,
        5,
        6,
        7,
        8,
        9
      ],
      "name": "Alarm_Clock_0"
    },
    {
      "mesh": 0,
      "name": "Object_4"
    },
    {
      "mesh": 1,
      "name": "Object_5"
    },
    {
      "mesh": 2,
      "name": "Object_6"
    },
    {
      "mesh": 3,
      "name": "Object_7"
    },
    {
      "mesh": 4,
      "name": "Object_8"
    },
    {
      "mesh": 5,
      "name": "Object_9"
    }
  ],
  "scene": 0,
  "scenes": [
    {
      "name": "Sketchfab_Scene",
      "nodes": [
        0
      ]
    }
  ]
}
